# xmcd CD database file
#
# Track frame offsets:
#	150
#	21222
#	48055
#	73775
#
# Disc length: 1260 seconds
#
# Revision: 2
# Processed by: cddbd v1.5PL3 Copyright (c) Steve Scherf et al.
# Submitted via: CDex 1.50beta10
#
DISCID=2c04ea04
DTITLE=Truth of Time - TUBE
DYEAR=2000
DGENRE=New Age
TTITLE0=Truth Of Time
TTITLE1=Sha La La(English Version)
TTITLE2=Remember Me(English Version)
TTITLE3=Truth Of Time(Original Karaoke)
EXTD=YEAR: 2000
EXTT0=
EXTT1=
EXTT2=
EXTT3=
PLAYORDER=
